# xmcd
#
# Track frame offsets:
#	150
#	14621
#	30204
#	41222
#
# Disc length: 790 seconds
# Revision: 0
# Processed by: cddbd v1.5.2PL0 Copyright (c) Steve Scherf et al.
# Submitted via: dBpowerAMP V12.0
#
DISCID=28031404
DTITLE=Wood Belly - November
DYEAR=2019
DGENRE=Bluegrass
TTITLE0=My Time
TTITLE1=Niovember
TTITLE2=Elevation
TTITLE3=Busy Thoughts
EXTD=
EXTT0=
EXTT1=
EXTT2=
EXTT3=
PLAYORDER=
